<svg xmlns="http://www.w3.org/2000/svg" version="1.1" xmlns:xlink="http://www.w3.org/1999/xlink" xmlns:svgjs="http://svgjs.com/svgjs" width="1440" height="560" preserveAspectRatio="none" viewBox="0 0 1440 560"><g mask="url(&quot;#SvgjsMask1009&quot;)" fill="none"><path d="M1189.82 105.06a19.02 19.02 0 1 0-13.66 35.5z" stroke="rgba(31, 178, 165, 1)"></path><path d="M192.31 461.77L221.86 461.77L221.86 491.45L192.31 491.45z" stroke="rgba(102, 26, 230, 1)"></path><path d="M594.31 56.04L623.45 56.04L623.45 98.35L594.31 98.35z" stroke="rgba(217, 38, 170, 1)"></path><path d="M1062.04 195.02 a12.74 12.74 0 1 0 25.48 0 a12.74 12.74 0 1 0 -25.48 0z" stroke="rgba(217, 38, 170, 1)"></path><path d="M930.6 467.72 a37.32 37.32 0 1 0 74.64 0 a37.32 37.32 0 1 0 -74.64 0z" stroke="rgba(102, 26, 230, 1)"></path><path d="M304.12 227.06L320.08 227.06L320.08 249.33L304.12 249.33z" fill="rgba(31, 178, 165, 1)"></path><path d="M711.1 386.46L757.95 386.46L757.95 433.31L711.1 433.31z" fill="rgba(31, 178, 165, 1)"></path><path d="M340.02 246.48 a48.07 48.07 0 1 0 96.14 0 a48.07 48.07 0 1 0 -96.14 0z" stroke="rgba(102, 26, 230, 1)"></path><path d="M1165.55 277.87a33.49 33.49 0 1 0 65.82 12.36z" stroke="rgba(102, 26, 230, 1)"></path><path d="M1292.36 139.4L1345.26 139.4L1345.26 156.19L1292.36 156.19z" fill="rgba(31, 178, 165, 1)"></path><path d="M571.54 247.16L612.69 247.16L612.69 274.51L571.54 274.51z" stroke="rgba(217, 38, 170, 1)"></path><path d="M979.1 529.82L1026.4 529.82L1026.4 577.12L979.1 577.12z" stroke="rgba(31, 178, 165, 1)"></path><path d="M56.63 429.71L88.03 429.71L88.03 461.11L56.63 461.11z" fill="rgba(217, 38, 170, 1)"></path><path d="M758.64 232.88L767.7 232.88L767.7 241.94L758.64 241.94z" fill="rgba(217, 38, 170, 1)"></path><path d="M962.78 196.31L989.91 196.31L989.91 233.37L962.78 233.37z" stroke="rgba(31, 178, 165, 1)"></path><path d="M724.79 263.1a29.07 29.07 0 1 0-24.05 52.94z" stroke="rgba(31, 178, 165, 1)"></path><path d="M177.33 456.61L184.66 456.61L184.66 463.94L177.33 463.94z" fill="rgba(102, 26, 230, 1)"></path><path d="M946.52 331.71a41.7 41.7 0 1 0-3.8-83.31z" fill="rgba(102, 26, 230, 1)"></path><path d="M601.18 191.21a27.92 27.92 0 1 0 32.44-45.45z" fill="rgba(102, 26, 230, 1)"></path><path d="M575.09 290.82L601.9 290.82L601.9 317.49L575.09 317.49z" fill="rgba(31, 178, 165, 1)"></path><path d="M639.3 485.64L643.34 485.64L643.34 534.49L639.3 534.49z" stroke="rgba(217, 38, 170, 1)"></path><path d="M601.76 206.25 a49.92 49.92 0 1 0 99.84 0 a49.92 49.92 0 1 0 -99.84 0z" stroke="rgba(102, 26, 230, 1)"></path><path d="M177.69 200.53L204.73 200.53L204.73 227.57L177.69 227.57z" stroke="rgba(31, 178, 165, 1)"></path><path d="M1170.91 112.34 a27.61 27.61 0 1 0 55.22 0 a27.61 27.61 0 1 0 -55.22 0z" stroke="rgba(102, 26, 230, 1)"></path><path d="M545.36 362.29 a1.97 1.97 0 1 0 3.94 0 a1.97 1.97 0 1 0 -3.94 0z" fill="rgba(217, 38, 170, 1)"></path><path d="M1087.47 314.68L1104.64 314.68L1104.64 348.17L1087.47 348.17z" fill="rgba(217, 38, 170, 1)"></path><path d="M712.06 115.42 a6.27 6.27 0 1 0 12.54 0 a6.27 6.27 0 1 0 -12.54 0z" fill="rgba(31, 178, 165, 1)"></path><path d="M630.92 554.31 a21.1 21.1 0 1 0 42.2 0 a21.1 21.1 0 1 0 -42.2 0z" fill="rgba(217, 38, 170, 1)"></path><path d="M838.51 293.9 a45.14 45.14 0 1 0 90.28 0 a45.14 45.14 0 1 0 -90.28 0z" stroke="rgba(217, 38, 170, 1)"></path><path d="M1036.73 65.74 a44.54 44.54 0 1 0 89.08 0 a44.54 44.54 0 1 0 -89.08 0z" fill="rgba(31, 178, 165, 1)"></path><path d="M378.33 368.64L428.69 368.64L428.69 413.74L378.33 413.74z" fill="rgba(31, 178, 165, 1)"></path><path d="M1223.54 416.49L1247.58 416.49L1247.58 424.56L1223.54 424.56z" stroke="rgba(217, 38, 170, 1)"></path><path d="M149.9 131.29L179.11 131.29L179.11 137.03L149.9 137.03z" stroke="rgba(217, 38, 170, 1)"></path></g><defs><mask id="SvgjsMask1009"><rect width="1440" height="560" fill="#ffffff"></rect></mask></defs></svg>