<svg id="eETua2scrHS1" xmlns="http://www.w3.org/2000/svg" xmlns:xlink="http://www.w3.org/1999/xlink" viewBox="0 0 1024 1024" shape-rendering="geometricPrecision" text-rendering="geometricPrecision"><g><path d="M704,576v-128h128v128h-128Zm146,1v-130c0-5.52285,4.47715-10,10-10s10,4.47715,10,10v130c0,5.52285-4.47715,10-10,10s-10-4.47715-10-10Z" fill="#e5e7eb" stroke="#000" stroke-width="10"/><path d="M447,172.49961c-5.52285,0-10-4.47715-10-10s4.47715-10,10-10h130c5.52285,0,10,4.47715,10,10s-4.47715,10-10,10h-130ZM448,320v-128h128v128h-128Z" fill="#e5e7eb" stroke="#000" stroke-width="10" stroke-linecap="round" stroke-linejoin="round"/><path d="M447,871.12703c-5.52285,0-10-4.47715-10-10s4.47715-10,10-10h130c5.52285,0,10,4.47715,10,10s-4.47715,10-10,10h-130ZM448,832v-128h128v128h-128Z" fill="#e5e7eb" stroke="#000" stroke-width="10" stroke-linecap="round" stroke-linejoin="round"/><path d="M609.17063,334.29474l92.06242-88.9298l88.9298,92.06242-92.06242,88.9298-88.9298-92.06242ZM715.64796,233.60146c-3.83708-3.97224-3.7275-10.30294.24474-14.14002s10.30294-3.7275,14.14002.24474l90.31933,93.5009c3.83708,3.97224,3.7275,10.30294-.24474,14.14002s-10.30294,3.7275-14.14002-.24474l-90.31933-93.5009Z" transform="translate(0 0.000001)" fill="#e5e7eb" stroke="#000" stroke-width="10"/><path d="M205.20164,702.27167c-3.61624-4.17429-3.16385-10.48975,1.01043-14.10599s10.48975-3.16385,14.10599,1.01043l85.12114,98.25677c3.61624,4.17429,3.16385,10.48975-1.01043,14.10599s-10.48975,3.16385-14.10599-1.01043l-85.12114-98.25677Zm29.78794-363.65408l86.08352-94.72923l94.72923,86.08352-86.08352,94.72923-94.72923-86.08352Zm-29.61044-23.83391l87.42858-96.20937c3.71427-4.08731,10.03869-4.38971,14.126-.67545s4.38971,10.03869.67545,14.126l-87.42858,96.20937c-3.71427,4.08731-10.03869,4.38971-14.126.67545s-4.38971-10.03869-.67545-14.126ZM715.42559,794.02685l87.42858-96.20937c3.71427-4.08731,10.03869-4.38971,14.126-.67545s4.38971,10.03869.67545,14.126L730.22704,807.4774c-3.71427,4.08731-10.03869,4.38971-14.126.67545s-4.38971-10.03869-.67545-14.126ZM609.24456,693.44045l87.43545-93.48284l93.48284,87.43545L702.7274,780.8759l-93.48284-87.43545ZM234.98958,681.3309l96.3791-84.23224l84.23224,96.3791L319.22182,777.71l-84.23224-96.3791Z" fill="#e5e7eb" stroke="#000" stroke-width="10"/><path d="M191.22182,576v-128h128v128h-128Zm-36.29087,1v-130c0-5.52285,4.47715-10,10-10s10,4.47715,10,10v130c0,5.52285-4.47715,10-10,10s-10-4.47715-10-10Z" fill="#e5e7eb" stroke="#000" stroke-width="10"/></g><ellipse rx="256" ry="256" transform="translate(512 512)" fill="#e5e7eb" stroke="#000" stroke-width="10"/></svg>
