<svg xmlns="http://www.w3.org/2000/svg" version="1.1" xmlns:xlink="http://www.w3.org/1999/xlink" xmlns:svgjs="http://svgjs.com/svgjs" width="1440" height="560" preserveAspectRatio="none" viewBox="0 0 1440 560"><g mask="url(&quot;#SvgjsMask1016&quot;)" fill="none"><rect width="1440" height="560" x="0" y="0" fill="rgba(42, 48, 60, 1)"></rect><path d="M154.14 144.45L176.53 144.45L176.53 166.84L154.14 166.84z" stroke="rgba(217, 38, 170, 1)"></path><path d="M87.58 371.4L99.99 371.4L99.99 419.48L87.58 419.48z" fill="rgba(31, 178, 165, 1)"></path><path d="M147.4 460.37 a1.86 1.86 0 1 0 3.72 0 a1.86 1.86 0 1 0 -3.72 0z" stroke="rgba(217, 38, 170, 1)"></path><path d="M1308.7 179.83 a33.81 33.81 0 1 0 67.62 0 a33.81 33.81 0 1 0 -67.62 0z" stroke="rgba(31, 178, 165, 1)"></path><path d="M597.97 211.42a42.26 42.26 0 1 0-83.15 15.17z" stroke="rgba(217, 38, 170, 1)"></path><path d="M371.58 510.14L371.71 510.14L371.71 520.65L371.58 520.65z" stroke="rgba(217, 38, 170, 1)"></path><path d="M1331.3 90.56 a25.53 25.53 0 1 0 51.06 0 a25.53 25.53 0 1 0 -51.06 0z" fill="rgba(31, 178, 165, 1)"></path><path d="M1094.06 35.37 a4.59 4.59 0 1 0 9.18 0 a4.59 4.59 0 1 0 -9.18 0z" stroke="rgba(31, 178, 165, 1)"></path><path d="M705.35 143.39 a11.33 11.33 0 1 0 22.66 0 a11.33 11.33 0 1 0 -22.66 0z" fill="rgba(217, 38, 170, 1)"></path><path d="M228.05 10.99L241.04 10.99L241.04 23.98L228.05 23.98z" stroke="rgba(31, 178, 165, 1)"></path><path d="M1155.59 335.38L1201.03 335.38L1201.03 350.19L1155.59 350.19z" fill="rgba(217, 38, 170, 1)"></path><path d="M364.32 84.63a30.55 30.55 0 1 0 34.02-50.75z" fill="rgba(102, 26, 230, 1)"></path><path d="M583.68 558.09 a48.07 48.07 0 1 0 96.14 0 a48.07 48.07 0 1 0 -96.14 0z" fill="rgba(102, 26, 230, 1)"></path><path d="M1083.93 471.96a9.39 9.39 0 1 0-15.09 11.17z" fill="rgba(217, 38, 170, 1)"></path><path d="M456.48 191.64L505 191.64L505 247.59L456.48 247.59z" stroke="rgba(102, 26, 230, 1)"></path><path d="M121.24 64.03L169.02 64.03L169.02 119.1L121.24 119.1z" fill="rgba(102, 26, 230, 1)"></path><path d="M623.42 354.57L631.39 354.57L631.39 362.54L623.42 362.54z" fill="rgba(31, 178, 165, 1)"></path><path d="M244.67 535.33 a44.22 44.22 0 1 0 88.44 0 a44.22 44.22 0 1 0 -88.44 0z" stroke="rgba(217, 38, 170, 1)"></path><path d="M427.95 68.95a49.23 49.23 0 1 0-51.91-83.66z" fill="rgba(102, 26, 230, 1)"></path><path d="M572.2 127.87a5.83 5.83 0 1 0-5.57-10.25z" fill="rgba(102, 26, 230, 1)"></path><path d="M948.18 239.41L975.79 239.41L975.79 267.02L948.18 267.02z" fill="rgba(217, 38, 170, 1)"></path><path d="M621.37 406.95L658.18 406.95L658.18 412.32L621.37 412.32z" stroke="rgba(31, 178, 165, 1)"></path><path d="M568.6 166.64L614.54 166.64L614.54 212.58L568.6 212.58z" fill="rgba(102, 26, 230, 1)"></path><path d="M793.47 472.21L833.2 472.21L833.2 511.94L793.47 511.94z" stroke="rgba(102, 26, 230, 1)"></path><path d="M0.72 51.49L36.41 51.49L36.41 87.18L0.72 87.18z" stroke="rgba(102, 26, 230, 1)"></path><path d="M887.62 484.59a55.63 55.63 0 1 0-110.98-7.89z" stroke="rgba(102, 26, 230, 1)"></path><path d="M213.77 300.48L254.03 300.48L254.03 340.74L213.77 340.74z" stroke="rgba(102, 26, 230, 1)"></path><path d="M553.8 99.36 a5.35 5.35 0 1 0 10.7 0 a5.35 5.35 0 1 0 -10.7 0z" stroke="rgba(102, 26, 230, 1)"></path><path d="M1411.72 478.46L1422.72 478.46L1422.72 489.46L1411.72 489.46z" stroke="rgba(102, 26, 230, 1)"></path><path d="M1273.86 420.96 a24.24 24.24 0 1 0 48.48 0 a24.24 24.24 0 1 0 -48.48 0z" stroke="rgba(102, 26, 230, 1)"></path><path d="M780.94 200.01L831.14 200.01L831.14 236.58L780.94 236.58z" fill="rgba(31, 178, 165, 1)"></path><path d="M431.63 123.59L482.6 123.59L482.6 125.11L431.63 125.11z" stroke="rgba(102, 26, 230, 1)"></path><path d="M1165.41 8.9L1187.17 8.9L1187.17 17L1165.41 17z" fill="rgba(217, 38, 170, 1)"></path></g><defs><mask id="SvgjsMask1016"><rect width="1440" height="560" fill="#ffffff"></rect></mask></defs></svg>